<?xml version="1.0" encoding="UTF-8"?>
<svg version="1.1" xmlns="http://www.w3.org/2000/svg" width="184" height="54">
<path d="M0 0 C60.72 0 121.44 0 184 0 C184 17.82 184 35.64 184 54 C123.28 54 62.56 54 0 54 C0 36.18 0 18.36 0 0 Z " fill="#FDFDFD" transform="translate(0,0)"/>
<path d="M0 0 C28.05 0 56.1 0 85 0 C85 13.53 85 27.06 85 41 C56.95 41 28.9 41 0 41 C0 27.47 0 13.94 0 0 Z " fill="#010101" transform="translate(7,6)"/>
<path d="M0 0 C60.72 0 121.44 0 184 0 C184 17.82 184 35.64 184 54 C123.28 54 62.56 54 0 54 C0 36.18 0 18.36 0 0 Z M4 3 C4 18.51 4 34.02 4 50 C62.08 50 120.16 50 180 50 C180 34.49 180 18.98 180 3 C121.92 3 63.84 3 4 3 Z " fill="#A2A2A2" transform="translate(0,0)"/>
<path d="M0 0 C1.258125 -0.04125 2.51625 -0.0825 3.8125 -0.125 C4.52019531 -0.14820312 5.22789062 -0.17140625 5.95703125 -0.1953125 C8 0 8 0 11 2 C10.814375 3.2375 10.62875 4.475 10.4375 5.75 C10.05288777 8.76279577 9.9125406 11.10010827 11 14 C8.5625 13.625 8.5625 13.625 6 13 C5.67 12.34 5.34 11.68 5 11 C4.67 11.99 4.34 12.98 4 14 C2.68 14 1.36 14 0 14 C0 9.38 0 4.76 0 0 Z " fill="#202020" transform="translate(143,19)"/>
<path d="M0 0 C4.29425875 1.07356469 4.74740471 1.5084773 7 5 C7.33 3.35 7.66 1.7 8 0 C9.32 0 10.64 0 12 0 C12 4.62 12 9.24 12 14 C10.68 14 9.36 14 8 14 C5.75 11 5.75 11 4 8 C3.67 9.98 3.34 11.96 3 14 C2.01 14 1.02 14 0 14 C0 9.38 0 4.76 0 0 Z " fill="#0A0A0A" transform="translate(157,19)"/>
<path d="M0 0 C1.32 0 2.64 0 4 0 C4.83764268 1.95649397 5.66999059 3.91525556 6.5 5.875 C6.9640625 6.96554688 7.428125 8.05609375 7.90625 9.1796875 C9 12 9 12 9 14 C7.68 14 6.36 14 5 14 C5 13.34 5 12.68 5 12 C3.02 12 1.04 12 -1 12 C-1 12.66 -1 13.32 -1 14 C-2.32 14 -3.64 14 -5 14 C-4.54636829 12.41531323 -4.08688548 10.83230076 -3.625 9.25 C-3.36976563 8.36828125 -3.11453125 7.4865625 -2.8515625 6.578125 C-2.0790066 4.23919428 -1.16374324 2.16557438 0 0 Z " fill="#141414" transform="translate(132,19)"/>
<path d="M0 0 C2.97 0 5.94 0 9 0 C9 0.99 9 1.98 9 3 C7.35 3 5.7 3 4 3 C4 3.66 4 4.32 4 5 C5.65 5 7.3 5 9 5 C9 5.99 9 6.98 9 8 C7.35 8 5.7 8 4 8 C4 8.99 4 9.98 4 11 C5.98 11 7.96 11 10 11 C10 11.99 10 12.98 10 14 C6.7 14 3.4 14 0 14 C0 9.38 0 4.76 0 0 Z " fill="#0C0C0C" transform="translate(116,19)"/>
<path d="M0 0 C1.32 0 2.64 0 4 0 C4 3.3 4 6.6 4 10 C5.98 10 7.96 10 10 10 C10 11.32 10 12.64 10 14 C6.7 14 3.4 14 0 14 C0 9.38 0 4.76 0 0 Z " fill="#0B0B0B" transform="translate(105,19)"/>
<path d="M0 0 C4.38635744 2.19317872 5.51256905 3.91350629 8 8 C8.33 5.36 8.66 2.72 9 0 C9.66 0 10.32 0 11 0 C11 4.62 11 9.24 11 14 C7.46766245 12.82255415 7.13691925 12.04394359 5.3125 8.9375 C4.65701172 7.83728516 4.65701172 7.83728516 3.98828125 6.71484375 C3.66214844 6.14894531 3.33601563 5.58304688 3 5 C2.67 7.97 2.34 10.94 2 14 C1.34 14 0.68 14 0 14 C0 9.38 0 4.76 0 0 Z " fill="#E5E5E5" transform="translate(57,19)"/>
<path d="M0 0 C2.64 0 5.28 0 8 0 C8 0.66 8 1.32 8 2 C6.02 2 4.04 2 2 2 C2 3.32 2 4.64 2 6 C3.98 6 5.96 6 8 6 C8 6.66 8 7.32 8 8 C6.02 8 4.04 8 2 8 C2 9.32 2 10.64 2 12 C3.98 12 5.96 12 8 12 C8 12.66 8 13.32 8 14 C5.36 14 2.72 14 0 14 C0 9.38 0 4.76 0 0 Z " fill="#EFEFEF" transform="translate(44,19)"/>
<path d="M0 0 C2.97 0 5.94 0 9 0 C8.12182324 3.51270703 7.34712949 5.31210848 5.4375 8.25 C4.98246094 8.95640625 4.52742188 9.6628125 4.05859375 10.390625 C3.70925781 10.92171875 3.35992187 11.4528125 3 12 C5.31 12 7.62 12 10 12 C10 12.66 10 13.32 10 14 C6.7 14 3.4 14 0 14 C1.45044271 9.89041233 3.51110752 6.56741255 6 3 C3.03 2.505 3.03 2.505 0 2 C0 1.34 0 0.68 0 0 Z " fill="#F0F0F0" transform="translate(30,19)"/>
<path d="M0 0 C0.66 0 1.32 0 2 0 C2 4.62 2 9.24 2 14 C1.01 13.67 0.02 13.34 -1 13 C-1.6875 10.9375 -1.6875 10.9375 -2 9 C-1.67 9 -1.34 9 -1 9 C-0.67 6.03 -0.34 3.06 0 0 Z " fill="#F5F5F5" transform="translate(66,19)"/>
</svg>
